<svg t="1596408918851" class="icon" viewBox="0 0 1123 1024" version="1.1" xmlns="http://www.w3.org/2000/svg" p-id="12601" width="200" height="200"><path d="M941.631779 883.645981H179.908154a44.197147 44.197147 0 0 1-42.017019-31.512764l-75.974169-243.54676-57.079723-183.362006a100.649258 100.649258 0 0 1 38.317407-113.366673 94.736486 94.736486 0 0 1 116.802027 6.044901l143.624211 122.615703 167.011043-381.489426A96.024743 96.024743 0 0 1 559.514741 0.00033h0.990968a96.42113 96.42113 0 0 1 88.823713 60.713271l158.059304 380.069039 157.167433-129.552475a95.231969 95.231969 0 0 1 116.273511-4.492385 100.781387 100.781387 0 0 1 37.788891 112.772092l-134.969763 432.722441a44.296244 44.296244 0 0 1-42.017019 31.512765zM883.792314 1024H237.61549a45.320243 45.320243 0 0 1 0-90.574422h646.176824a45.320243 45.320243 0 0 1 0 90.574422z m0 0" p-id="12602" fill="#f4ea2a"></path></svg>