<svg t="1596406630271" class="icon" viewBox="0 0 1024 1024" version="1.1" xmlns="http://www.w3.org/2000/svg" p-id="9268" width="200" height="200"><path d="M971.776 1016.32H66.56c-14.336 0-25.6-11.264-25.6-25.6V187.392C40.96 133.12 84.992 89.088 139.264 89.088c14.336 0 25.6 11.264 25.6 25.6s-11.264 25.6-25.6 25.6c-26.112 0-47.104 20.992-47.104 47.104v777.728h854.016v-778.24c0-26.112-20.992-47.104-47.104-47.104-14.336 0-25.6-11.264-25.6-25.6s11.264-25.6 25.6-25.6c54.272 0 98.304 44.032 98.304 98.304v803.84c0 14.336-11.264 25.6-25.6 25.6z" p-id="9269" fill="#8400FF"></path><path d="M717.312 202.752H328.704c-51.712 0-93.696-41.984-93.696-93.696C235.008 57.344 276.992 15.36 328.704 15.36h388.608c51.712 0 93.696 41.984 93.696 93.696-0.512 51.712-42.496 93.696-93.696 93.696zM328.704 66.56c-23.552 0-42.496 18.944-42.496 42.496s18.944 42.496 42.496 42.496h388.608c23.552 0 41.984-18.944 42.496-43.008 0-23.04-18.944-41.984-42.496-41.984H328.704zM800.768 417.792l-550.4-2.048c-14.336 0-25.6-11.776-25.6-25.6 0-14.336 11.264-25.6 25.6-25.6l550.4 2.048c14.336 0 25.6 11.776 25.6 25.6 0 14.336-11.264 25.6-25.6 25.6zM803.84 595.968L253.952 593.92c-14.336 0-25.6-11.776-25.6-25.6 0-14.336 11.264-25.6 25.6-25.6l549.888 2.048c14.336 0 25.6 11.776 25.6 25.6 0 14.336-11.264 25.6-25.6 25.6zM803.84 772.096l-549.888-2.048c-14.336 0-25.6-11.776-25.6-25.6 0-14.336 11.264-25.6 25.6-25.6l549.888 2.048c14.336 0 25.6 11.776 25.6 25.6 0 14.336-11.264 25.6-25.6 25.6z" p-id="9270" fill="#8400FF"></path></svg>