<svg t="1596405989066" class="icon" viewBox="0 0 1024 1024" version="1.1" xmlns="http://www.w3.org/2000/svg" p-id="6671" width="200" height="200"><path d="M636.928 512a197.632 197.632 0 1 0-248.32 0A358.4 358.4 0 0 0 153.6 850.944v32.768h720.384v-32.768A358.4 358.4 0 0 0 636.928 512zM460.8 560.128h102.4a294.4 294.4 0 0 1 244.736 256H219.648a290.304 290.304 0 0 1 241.152-256zM381.952 358.4A131.072 131.072 0 1 1 512 489.472 130.56 130.56 0 0 1 381.952 358.4z" fill="#8400FF" p-id="6672"></path><path d="M1011.2 751.616v26.112h-120.832a249.344 249.344 0 0 0-14.336-51.2h81.92a216.064 216.064 0 0 0-146.944-181.248h-2.56a301.056 301.056 0 0 0-51.2-51.2l-12.8-10.24 15.872-3.584a95.744 95.744 0 0 0-19.456-189.952h-18.432v-7.68a164.352 164.352 0 0 0-12.288-33.792l-4.608-8.704h10.24a174.592 174.592 0 0 1 27.136-2.56 147.968 147.968 0 0 1 95.232 261.12 267.776 267.776 0 0 1 173.056 252.928zM12.8 751.616v26.112h120.832a249.344 249.344 0 0 1 14.336-51.2h-81.92a216.064 216.064 0 0 1 146.944-181.248 301.056 301.056 0 0 1 51.2-51.2l12.8-10.24-15.872-3.584a95.744 95.744 0 0 1 19.456-189.952h18.432v-7.68a164.352 164.352 0 0 1 12.288-33.792l4.608-8.704h-10.24a174.592 174.592 0 0 0-27.136-2.56 147.968 147.968 0 0 0-95.232 261.12 267.776 267.776 0 0 0-170.496 252.928z" fill="#8400FF" p-id="6673"></path></svg>