<svg t="1596406070310" class="icon" viewBox="0 0 1024 1024" version="1.1" xmlns="http://www.w3.org/2000/svg" p-id="7383" width="200" height="200"><path d="M866.7136 884.0192h-42.7008a17.92 17.92 0 0 1-17.92-17.92V157.9008c0-9.9328 7.9872-17.92 17.92-17.92h42.7008c9.9328 0 17.92 7.9872 17.92 17.92v708.1984a17.92 17.92 0 0 1-17.92 17.92z m-24.7808-35.84h6.8608V175.8208h-6.8608v672.3584z m-107.2128 35.84H602.3168a17.92 17.92 0 0 1-17.92-17.92V157.9008c0-9.9328 7.9872-17.92 17.92-17.92h132.4032c9.9328 0 17.92 7.9872 17.92 17.92v708.1984a17.92 17.92 0 0 1-17.92 17.92z m-114.4832-35.84H716.8V175.8208h-96.5632v672.3584z m-107.4176 35.84h-42.9056a17.92 17.92 0 0 1-17.92-17.92V157.9008c0-9.9328 7.9872-17.92 17.92-17.92h42.9056c9.9328 0 17.92 7.9872 17.92 17.92v708.1984a17.92 17.92 0 0 1-17.92 17.92z m-24.9856-35.84h7.0656V175.8208h-7.0656v672.3584z m-106.0864 35.84h-42.7008a17.92 17.92 0 0 1-17.92-17.92V157.9008c0-9.9328 7.9872-17.92 17.92-17.92h42.7008c9.9328 0 17.92 7.9872 17.92 17.92v708.1984a17.92 17.92 0 0 1-17.92 17.92z m-24.7808-35.84h6.8608V175.8208h-6.8608v672.3584z m-107.7248 35.84h-91.8528a17.92 17.92 0 0 1-17.92-17.92V157.9008c0-9.9328 7.9872-17.92 17.92-17.92h91.8528c9.9328 0 17.92 7.9872 17.92 17.92v708.1984a17.92 17.92 0 0 1-17.92 17.92z m-73.9328-35.84h56.0128V175.8208h-56.0128v672.3584zM941.3632 104.0384a21.504 21.504 0 0 1-21.6064 21.504H104.1408a21.504 21.504 0 1 1 0-43.008h815.8208c11.8784 0 21.4016 9.5232 21.4016 21.504zM941.3632 919.9616a21.504 21.504 0 0 1-21.6064 21.4016H104.1408a21.504 21.504 0 0 1-21.504-21.4016c0-11.776 9.6256-21.6064 21.504-21.6064h815.8208a21.504 21.504 0 0 1 21.4016 21.6064z" fill="#8400FF" p-id="7384"></path></svg>