<svg t="1596406559531" class="icon" viewBox="0 0 1024 1024" version="1.1" xmlns="http://www.w3.org/2000/svg" p-id="8994" width="200" height="200"><path d="M481.400519 1002.406411c9.957615 18.809372 23.448103 21.591143 30.599481 21.591143s20.641866-2.806237 30.592141-21.591143c29.669777-55.955923 93.562433-158.974421 155.358363-258.587267 106.013122-170.935791 170.801229-276.780099 176.315839-305.654735 4.362267-23.100688 6.573983-46.426461 6.573983-69.311849C880.840327 165.501919 715.345748 0 511.982874 0c-203.353088 0-368.823201 165.482346-368.823201 368.85256 0 26.45496 2.882081 53.073842 8.604651 79.127562 5.218573 23.890936 56.340038 107.507987 163.750161 279.664626C381.687362 833.692122 450.147799 943.394699 481.400519 1002.406411zM172.156639 368.835433c0-187.386652 152.456709-339.862934 339.826235-339.862934 187.398885 0 339.862934 152.476282 339.862934 339.862934 0 21.065126-2.025775 42.538832-6.05286 63.87553-4.932322 25.711197-97.834177 175.503572-172.477142 295.817003l-0.660579 1.103411c-61.820396 99.649545-125.739964 202.707188-155.656847 259.186681-2.336492 4.384286-4.286423 5.553756-5.000827 5.553756s-2.664335-1.179256-5.00572-5.553756c-31.600136-59.721223-100.043446-169.384654-166.240788-275.461387l-1.081392-1.739524c-69.001133-110.620048-154.898404-248.250431-159.61298-269.841574C174.801401 417.772095 172.156639 393.223027 172.156639 368.835433z" p-id="8995" fill="#8400FF"></path><path d="M511.963301 587.293758c120.452886 0 218.477897-97.985865 218.477897-218.460771s-98.022564-218.446091-218.477897-218.446091c-120.416188 0-218.409393 97.990758-218.409393 218.463218S391.527541 587.293758 511.963301 587.293758zM511.963301 169.714944c109.820013 0 199.157189 89.356748 199.157189 199.140062 0 109.820013-89.339622 199.135169-199.157189 199.135169-109.788208 0-199.083791-89.315156-199.083791-199.135169C312.87951 259.071692 402.175094 169.714944 511.963301 169.714944z" p-id="8996" fill="#8400FF"></path><path d="M447.987461 431.548834c10.490971-1.913232 18.611198-13.720468 18.611198-24.387593l0-22.18811c0-10.672019-8.660923-19.330495-19.325602-19.330495l-3.038663 0c-10.672019 0-19.325602 2.938353-19.325602 6.573983s5.720124 6.571536 12.771191 6.571536c7.055961 0 12.778531 8.465196 12.778531 18.902342s-4.621605 20.852273-10.708717 21.610715c-3.148759 0.403687-6.857787 0.633666-11.075706 0.633666-29.667331 0-48.836351-18.97574-48.836351-51.079873 0-31.754271 20.096277-50.893932 50.906165-50.893932 5.509717 0 10.20472 0.411027 14.324775 1.142557 7.807064 1.392109 14.574327 1.318711 15.709544-2.378084 1.142557-3.691902-4.633838-9.666471-13.485595-11.168676-4.758614-0.814714-10.224293-1.335837-16.181736-1.335837-42.445862 0-68.555853 27.644002-68.555853 65.387521 0 19.717056 6.764817 36.625428 17.666815 47.143312 12.38463 11.807236 28.157786 16.678393 47.314573 16.678393C434.934912 433.425367 441.873437 432.654692 447.987461 431.548834z" p-id="8997" fill="#8400FF"></path><path d="M514.316919 382.365067c2.08694 0.137009 4.310889 0.19328 6.608235 0.19328 15.951756 0 29.867951-4.677877 38.675669-13.896622 6.397829-6.573983 9.7888-15.599448 9.7888-27.059268 0-11.249413-4.332908-20.468159-11.080599-26.4623-7.51592-6.764817-19.342728-10.537456-35.507337-10.537456-5.776395 0-10.994968 0.217746-15.736457 0.584735-8.678049 0.658132-15.636146 10.52767-15.636146 21.199688l0 86.413502c0 10.672019 3.652756 19.330495 8.176498 19.330495 4.521295 0 8.174052-8.660923 8.174052-19.330495l0-12.039661C507.789421 390.054695 510.683735 382.110622 514.316919 382.365067zM515.461923 317.78492c2.260648-0.154135 4.868711-0.249552 7.726326-0.249552 17.864988 0 29.865505 8.120227 29.865505 24.9919 0 17.106546-12.000516 26.883113-31.759164 26.883113-2.446588 0-4.734149-0.073398-6.821088-0.249552-3.745727-0.310717-6.691419-9.720296-6.691419-20.392314l0-10.571708C507.789421 327.507662 511.185286 318.078511 515.461923 317.78492z" p-id="8998" fill="#8400FF"></path><path d="M603.321358 418.366616c-8.149586-2.28022-14.933976-3.087595-16.140144 0.697278-1.191489 3.789765 4.386733 10.865299 13.444003 13.050102 5.304204 1.274673 11.131977 2.069814 16.707752 2.069814 29.867951 0 44.129115-17.072294 44.129115-36.632768 0-18.611198-10.708717-28.908888-32.101686-37.18325-17.468641-6.764817-25.170501-12.568125-25.170501-24.431632 0-8.638904 6.56175-18.939041 23.842004-18.939041 4.633838 0 8.771019 0.577395 12.323466 1.428808 6.681633 1.602515 12.548552 1.582943 13.776739-2.08694 1.242867-3.669883-3.439903-9.894003-11.229841-11.498965-4.17388-0.851413-8.95696-1.389662-14.312542-1.389662-24.622466 0-40.94855 14.645278-40.94855 34.381907 0 17.630116 12.771191 28.54924 33.43263 36.048033 17.079634 6.380703 23.839557 13.319227 23.839557 24.989454 0 12.758958-9.776567 21.593589-26.474533 21.593589C613.186003 420.480468 608.040827 419.685327 603.321358 418.366616z" p-id="8999" fill="#8400FF"></path></svg>